<?xml version="1.0" encoding="utf-8"?>
<!-- Generator: Adobe Illustrator 23.0.2, SVG Export Plug-In . SVG Version: 6.00 Build 0)  -->
<svg version="1.1" id="Layer_1" xmlns="http://www.w3.org/2000/svg" xmlns:xlink="http://www.w3.org/1999/xlink" x="0px" y="0px"
	 viewBox="0 0 211 107.9" style="enable-background:new 0 0 211 107.9;" xml:space="preserve">
<style type="text/css">
	.st0{fill:#99CA3C;}
	.st1{fill:none;stroke:#4C4C4C;stroke-width:1.5;stroke-miterlimit:10;}
	.st2{fill:#FF8B00;}
</style>
<title>5145470</title>
<g>
	<g id="OBJECTS">
		<g>
			<g>
				<g>
					<path class="st0" d="M134.5,2.5c-11.1-3-23.6-1-33.9,4.7c-12.1,6.6-23,16.1-35.6,21c-11.8,4.6-24.4,5-36.5,2.4
						c-8.3-1.7-16.4-4.7-24.7-6.4c-8.3-1.6-17.2-1.9-25,2c-14.6,7.1-21.6,32.8-14.7,49c4,9.3,12.7,14.5,21.3,17.2
						c13.4,4.1,27.9,3.2,40.7-2.4c9.6-4.2,18.4-10.9,28.4-13c15.4-3.2,30.7,5.2,45.8,9.5c6.8,1.9,13.8,3,20.8,3.2
						c5.1,0.1,10.2-0.1,14.9-2.3c4-1.9,7.5-4.9,10.7-8.2c7.2-7.4,13.9-17.3,13.6-28.6c-0.2-9.1,1.6-21-2.5-29
						C152.3,11.1,143.8,5,134.5,2.5z"/>
					<path class="st1" d="M121,18.8c-0.6-0.3-1.3-0.6-1.9-0.9C108,12.8,97.2,6.1,85.3,5.2c-9-0.7-18,1.9-25.6,7.4
						c-9.3,6.8-16.3,17.5-25.8,23.9c-14,9.4-31.5,8-47.2,3.7c-8.1-2.3-16.6-5.2-24.6-2.6c-16.9,5.5-20.9,32.7-6.9,44.8
						c2.4,2.1,5.2,3.7,8.2,4.9c12.1,5.1,25.8,5,37.7-0.2c8.8-3.8,17-10.3,26.3-10.8c12.3-0.6,22.9,8.9,34.1,14.8
						c6,3.1,12.3,5.1,18.7,6.9c12.3,3.5,25.1,6,37.5,3.6c12.5-2.4,24.7-10.9,29.8-24.3c3.9-10.1,3.5-21.9,7.8-31.8
						c2.7-6.3,9.3-20.1-0.3-22.7c-5.1-1.4-11.5,1.9-17,1.2C132.1,23.1,126.4,21.1,121,18.8z"/>
					<path class="st2" d="M178.7,51.5c0-0.5-0.1-1-0.1-1.4c-0.2-2.6-0.7-5.1-1.6-7.5c-0.5-1.5-1.3-2.8-2.2-4.1
						c-1.2-1.9-2.3-3.9-3.3-5.9c-0.8-1.7-1.3-3.4-1.7-5.2c-0.4-1.7-0.7-3.5-0.8-5.3c0-1.6,0-3.2,0.1-4.8c0-0.9,0-1.7,0.1-2.6
						c0-0.1,0-0.3,0-0.4c0-0.3,0.2-0.5,0.4-0.5s0.4,0.1,0.5,0.4c0.1,0.3,0.2,0.6,0.2,1c0.2,1.5,0.9,3,2,4.1c0.8,0.8,1.6,1.5,2.4,2.2
						c3.3,2.7,5.4,6.5,5.6,10.6c0.2,1.4,0.2,2.8,0.2,4.3c0,0.1,0,0.1,0,0.3c0-0.1,0.1-0.1,0.1-0.2c0.3-2.7,0.7-5.3,0.9-8
						c0.2-2.1,0.1-4.2-0.3-6.2c-0.5-3.7-0.5-7.4,0.2-11.1c0.1-0.6,0.2-1.2,0.2-1.8c0-0.1,0-0.3,0.1-0.4c0.1-0.3,0.3-0.4,0.5-0.3
						c0.2,0.1,0.3,0.3,0.3,0.6c0,0.5,0,0.9,0,1.4c0.1,1.2,0.6,2.3,1.1,3.3c0.7,1.4,1.4,2.8,2,4.3c1.2,2.7,1.6,5.6,1,8.5
						c-0.3,1.5-0.5,2.9-0.8,4.3c-0.3,1.5-0.8,2.9-1.4,4.3c-0.6,1.5-1.2,3.1-1.7,4.6s-1,3.2-1.5,4.8c-0.1,0.2-0.1,0.4-0.1,0.6
						c0.3-0.6,0.6-1.3,0.9-1.9c0.9-1.5,1.7-3.1,2.6-4.6c0.9-1.6,1.9-3.2,2.8-4.9c1.6-3,2.3-6.4,2-9.8c-0.1-0.6-0.1-1.2-0.1-1.9
						c0-0.2,0-0.3,0-0.5c0.1-0.4,0.4-0.6,0.8-0.5c0.1,0,0.2,0.1,0.2,0.1c2.4,2.2,3.7,5.1,3.7,8.7c0,1.4-0.5,2.6-0.9,3.9
						c-0.7,1.5-1.6,3.1-2.6,4.4c-1,1.5-2.1,2.9-3.1,4.3c-1.3,1.8-2.4,3.7-3.4,5.7c-1.2,2.5-2.2,5.1-3,7.9c-0.1,0.4-0.2,0.8-0.2,1.2
						c0,0.1,0,0.1,0,0.2v-0.1c0.9-2.8,2.7-5.3,5.2-7c1.5-1,3.1-1.9,4.7-3c1.6-1,3.1-2.2,4.4-3.5c2.4-2.4,3.5-5.6,3.6-9.3
						c0-0.5,0-1.1,0-1.6c0-0.1,0-0.3,0-0.4c0.1-0.5,0.5-0.6,0.7-0.3c0.1,0.1,0.2,0.2,0.2,0.3c0.6,1,1.2,2.1,1.6,3.2
						c0.9,2.2,0.9,4.6,0.2,6.9c-0.7,2.4-2.1,4.6-4,6.2c-1.3,1.2-2.7,2.2-4.2,3.1c-1,0.6-1.9,1.4-3,2c-0.9,0.5-1.8,1-2.6,1.5
						c-2.3,1.4-4,3.3-5.4,5.9c-0.8,1.4-1.3,3-1.6,4.6c-0.1,0.4-0.2,0.8-0.2,1.2c0,0.3-0.3,0.4-0.5,0.1c-0.2-0.3-0.3-0.5-0.3-0.8
						c-0.2,0-0.2-0.2-0.2-0.5c0.1-0.6,0-1.4-0.2-2c-0.4-1.7-1.2-3.3-2.3-4.8c-1.5-2-3.1-3.9-4.9-5.6c-1.2-1.3-2.5-2.6-3.7-4
						c-1.9-2.3-3-5-3.8-8c-0.8-3.1-1.2-6.2-1.2-9.3c0-1.9,0.2-3.7,0.3-5.5c0-0.1,0-0.2,0-0.3c0.1-0.1,0.2-0.3,0.3-0.3
						s0.2,0.1,0.3,0.2c0.1,0.1,0.1,0.3,0.1,0.5c0.2,1.2,0.2,2.4,0.4,3.6c0.3,2.1,1.3,3.9,2.8,5.4s3,3,4.6,4.4c2.8,2.6,4.7,5.8,6,9.7
						C178.4,50.6,178.5,51.1,178.7,51.5L178.7,51.5z M164,35.5c0,0.1,0,0.2,0,0.3c0.3,1.6,0.5,3.3,0.8,5c0.5,3,1.8,5.9,3.7,8.4
						c1.2,1.5,2.5,3,3.9,4.3c1.8,1.7,3.3,3.5,4.7,5.5c0.8,1,1.4,2.2,1.9,3.3c0-0.8,0-1.6,0-2.4c0-0.1,0-0.1,0-0.1
						c-0.3-1.1-0.6-2.2-0.9-3.3c-0.5-1.7-1.3-3.4-2.4-4.8c-1.2-1.4-2.4-2.8-3.9-4c-1.6-1.4-3-2.8-4.1-4.5
						C166.1,40.7,164.8,38.2,164,35.5L164,35.5z M179.1,41.6c0-0.1,0-0.3,0-0.3c0.1-1,0.1-2.1,0.2-3.2c0.2-2.4,0.1-5-0.3-7.3
						c-0.5-2.8-1.7-5.1-3.6-7c-1.1-1-2.2-2-3.3-3c-0.8-0.7-1.5-1.5-1.9-2.5c0-0.1-0.1-0.1-0.1-0.2c-0.1,0.3-0.1,0.5,0,0.8
						c0.2,2.8,1.1,5.7,2.4,8.3c0.6,1.2,1.4,2.3,2.3,3.3c1.9,2.4,3.3,5.3,3.9,8.3C178.7,39.7,179,40.6,179.1,41.6L179.1,41.6z
						 M164.3,32L164.3,32c0,0.3,0,0.6,0,0.8c0.3,1.9,0.9,3.8,1.7,5.6c1.2,2.6,2.7,5,4.7,6.9c1.2,1.2,2.4,2.4,3.7,3.5
						c2.1,2.1,3.6,4.6,4.4,7.3c0,0,0,0.1,0.1,0.1h0.1c0-0.3,0-0.6-0.1-1c-0.4-2.2-1-4.3-1.9-6.4c-0.9-2.5-2.4-4.9-4.3-6.8
						c-1.4-1.4-2.8-2.7-4.2-4c-1.1-1-2.1-2.1-3-3.3C165,34,164.6,33,164.3,32L164.3,32z M199.6,34.1
						C199.5,34.2,199.5,34.2,199.6,34.1c0,0.3,0,0.5,0,0.6c-0.1,3.5-1.1,6.7-3.3,9.2c-1.5,1.7-3.2,3-5,4.1c-1.5,1-3,1.9-4.5,2.8
						c-3.8,2.4-5.7,6.4-6.3,11.2c0,0.2,0,0.4,0,0.6l0.1-0.1c0.4-1.9,1.2-3.7,2.5-5.3c1.8-2.4,4-4.5,6.6-6.2c1.8-1.2,3.5-2.4,5.1-3.7
						c1.8-1.5,3.3-3.3,4.5-5.3c0.9-1.4,1.2-3.1,1.1-4.7C200.4,36.2,200.2,35.1,199.6,34.1L199.6,34.1z M190.6,22.8
						c0.3,0.9,0.6,1.9,0.7,2.9c0.3,2.3,0.2,4.7-0.5,6.9c-0.5,1.8-1.4,3.3-2.3,4.8c-1.6,2.7-3.3,5.3-4.7,8.1c-1.5,2.8-2.5,5.7-3,8.8
						v0.2l0.1-0.1c0.6-1.6,1.1-3.3,1.8-4.9c1.2-2.6,2.6-5.1,4.2-7.5c1-1.5,2.1-2.9,3.1-4.3c1.2-1.5,2.1-3.1,2.7-4.8
						c0.5-1.2,0.7-2.5,0.6-3.8c-0.2-1.4-0.5-2.8-1.2-4.1C191.7,24.2,191.2,23.4,190.6,22.8z M170,22.7c0,0.1,0,0.1,0,0.2
						c0.2,1.3,0.4,2.6,0.6,4c0.3,1.5,0.7,3,1.3,4.4c0.9,2.1,2,4.1,3.3,6.1c0.8,1.2,1.5,2.5,2.2,3.9c0.9,1.7,1.2,3.5,1.6,5.4
						c0.1,0.5,0.2,0.9,0.2,1.4c0-0.2,0-0.3,0-0.5c-0.2-2.5-0.5-5-1-7.5c-0.3-1.6-0.8-3.2-1.4-4.8c-0.7-1.6-1.6-3.1-2.7-4.5
						c-0.9-1-1.6-2.1-2.2-3.2C171,26,170.4,24.4,170,22.7z M182.3,59.9c0.1-0.1,0.2-0.3,0.3-0.4c1.4-2.1,3.3-3.8,5.6-5
						c0.9-0.5,1.9-1,2.8-1.5c1.2-0.8,2.5-1.7,3.7-2.5c2.2-1.4,4-3.3,5.3-5.5c0.9-1.6,1.4-3.5,1.4-5.3c0-0.5-0.1-0.9-0.1-1.4h-0.1
						c0,0.2-0.1,0.4-0.1,0.6c-0.2,1.7-0.9,3.4-1.9,4.8c-0.9,1.4-2.1,2.6-3.3,3.7c-1.4,1.2-2.9,2.4-4.5,3.4c-2.5,1.5-4.7,3.4-6.7,5.5
						C183.7,57.4,182.9,58.6,182.3,59.9z M181.8,13.3c0,0.6-0.2,1.2-0.2,1.8c-0.1,2.4,0,4.7,0.3,7.1c0.4,2.7,0.4,5.5,0.1,8.2
						c-0.3,2.3-0.6,4.6-0.9,6.9c-0.3,2.4-0.8,4.8-0.9,7.3c0,0.1,0,0.3,0,0.4c0.1-0.1,0.1-0.2,0.1-0.3c0.7-3.4,1.5-6.8,2.2-10.2
						c0.5-2.2,1-4.4,1.2-6.6c0.3-2.6,0.2-5.3-0.4-7.8C182.8,17.9,182.3,15.6,181.8,13.3z M179.9,54.8L179.9,54.8
						c0.2-0.6,0.3-1.1,0.4-1.6c0.4-2.2,1.1-4.2,2-6.2c1.6-3.2,3.4-6.2,5.3-9.2c0.8-1.2,1.5-2.5,2.1-3.8c1-2.4,1.3-5,1-7.5
						c-0.1-0.9-0.2-1.8-0.5-2.6V24c0,0.1,0,0.3,0,0.3c0.3,3.4-0.4,6.8-1.9,9.8c-0.8,1.5-1.6,2.8-2.4,4.2c-1,1.8-2.1,3.5-3.1,5.4
						c-0.9,1.7-1.6,3.4-2,5.3c-0.4,1.7-0.6,3.4-0.7,5.2C179.9,54.2,179.9,54.5,179.9,54.8L179.9,54.8z M182.8,14.6L182.8,14.6
						c0.2,1.2,0.5,2.4,0.8,3.6c0.3,1.4,0.6,2.7,0.8,4c0.3,2.7,0.2,5.5-0.4,8.1c-0.5,2.4-1,4.8-1.6,7.1c0,0.2-0.1,0.4-0.1,0.6
						c0.3-0.6,0.5-1.3,0.7-1.9c0.5-1.3,1-2.5,1.5-3.9c0.6-2.1,1-4.3,1.3-6.5c0.2-1.7,0.1-3.5-0.4-5.1s-1.1-3.2-1.9-4.6
						C183.3,15.5,183,15.1,182.8,14.6z"/>
				</g>
			</g>
		</g>
	</g>
</g>
</svg>
