<?xml version="1.0" encoding="utf-8"?>
<!-- Generator: Adobe Illustrator 23.0.2, SVG Export Plug-In . SVG Version: 6.00 Build 0)  -->
<svg version="1.1" id="Layer_1" xmlns="http://www.w3.org/2000/svg" xmlns:xlink="http://www.w3.org/1999/xlink" x="0px" y="0px"
	 viewBox="0 0 82 317" style="enable-background:new 0 0 82 317;" xml:space="preserve">
<style type="text/css">
	.st0{fill:#99CA3C;}
	.st1{fill:#FF8B00;}
</style>
<path class="st0" d="M-12.2,296.9c-2.4-0.6-5-0.2-7.2,1c-2.6,1.4-4.9,3.4-7.6,4.5c-2.5,1-5.2,1.1-7.8,0.5c-1.8-0.4-3.5-1-5.2-1.4
	c-1.8-0.3-3.7-0.4-5.3,0.4c-3.1,1.5-4.6,7-3.1,10.4c0.9,2,2.7,3.1,4.5,3.7c2.8,0.9,5.9,0.7,8.7-0.5c2-0.9,3.9-2.3,6-2.8
	c3.3-0.7,6.5,1.1,9.7,2c1.4,0.4,2.9,0.6,4.4,0.7c1.1,0,2.2,0,3.2-0.5c0.9-0.4,1.6-1,2.3-1.7c1.5-1.6,3-3.7,2.9-6.1
	c0-1.9,0.3-4.5-0.5-6.2C-8.4,298.7-10.2,297.4-12.2,296.9z"/>
<g>
	<g id="OBJECTS">
		<g>
			<g>
				<g>
					<path class="st1" d="M1,312c0-0.1,0.1-0.3,0.1-0.4c0.2-0.8,0.2-1.6,0.1-2.4c0-0.5-0.2-1-0.4-1.4c-0.2-0.7-0.4-1.4-0.6-2.1
						c-0.1-0.6-0.1-1.1-0.1-1.7c0-0.5,0.1-1.1,0.2-1.7c0.1-0.5,0.3-1,0.5-1.4c0.1-0.3,0.1-0.5,0.3-0.8V300c0-0.1,0.1-0.1,0.2-0.1
						c0.1,0,0.1,0.1,0.1,0.2s0,0.2,0,0.3c-0.1,0.5,0,1,0.3,1.4c0.2,0.3,0.4,0.6,0.6,0.9c0.9,1.1,1.3,2.5,1,3.7
						c-0.1,0.4-0.2,0.9-0.3,1.3c0,0,0,0,0,0.1c0,0,0,0,0.1,0c0.3-0.8,0.7-1.5,1-2.3c0.3-0.6,0.4-1.2,0.4-1.9c0.2-1.2,0.5-2.3,1-3.3
						c0.1-0.2,0.2-0.3,0.2-0.5c0,0,0-0.1,0.1-0.1c0.1-0.1,0.1-0.1,0.2,0c0.1,0,0.1,0.1,0,0.2c0,0.1-0.1,0.3-0.1,0.4
						c-0.1,0.4,0,0.7,0.1,1.1c0.1,0.5,0.2,1,0.3,1.5c0.2,0.9,0.1,1.8-0.4,2.6c-0.2,0.4-0.4,0.8-0.6,1.2c-0.2,0.4-0.5,0.8-0.9,1.1
						c-0.3,0.4-0.7,0.8-1,1.2c-0.3,0.4-0.6,0.9-0.9,1.3c-0.1,0-0.1,0.1-0.1,0.2c0.2-0.1,0.3-0.3,0.5-0.5c0.4-0.4,0.8-0.8,1.3-1.1
						c0.4-0.4,0.9-0.8,1.4-1.2c0.8-0.7,1.3-1.7,1.5-2.7c0-0.2,0.1-0.4,0.1-0.6c0-0.1,0-0.1,0-0.1c0.1-0.1,0.2-0.1,0.3-0.1h0.1
						c0.6,0.9,0.8,1.9,0.5,3c-0.1,0.4-0.4,0.7-0.6,1.1c-0.4,0.4-0.8,0.8-1.3,1c-0.5,0.3-1,0.7-1.4,1c-0.6,0.4-1.1,0.9-1.7,1.4
						c-0.6,0.6-1.2,1.3-1.7,2c-0.1,0.1-0.1,0.2-0.2,0.3c0,0,0,0,0,0.1l0,0c0.6-0.7,1.4-1.3,2.4-1.6c0.6-0.1,1.2-0.3,1.9-0.4
						c0.6-0.1,1.2-0.3,1.8-0.6c1-0.5,1.7-1.3,2-2.4c0-0.1,0.1-0.3,0.1-0.5v-0.1c0.1-0.1,0.2-0.1,0.3,0c0,0,0.1,0.1,0,0.1
						c0.1,0.4,0.2,0.7,0.3,1.1c0.1,0.7-0.1,1.5-0.5,2.1s-1.1,1.2-1.9,1.4c-0.5,0.2-1.1,0.4-1.7,0.5c-0.4,0.1-0.8,0.2-1.2,0.3
						c-0.3,0.1-0.7,0.1-1,0.2c-0.9,0.2-1.6,0.6-2.3,1.2c-0.4,0.3-0.7,0.8-0.9,1.2c-0.1,0.1-0.1,0.2-0.2,0.3c0,0.1-0.1,0.1-0.2,0
						c0-0.1-0.1-0.2,0-0.3c-0.1,0-0.1-0.1,0-0.2c0.1-0.2,0.1-0.4,0.1-0.6c0-0.5-0.1-1.1-0.4-1.7c-0.3-0.7-0.7-1.5-1.2-2.2
						c-0.3-0.5-0.6-1-0.9-1.6c-0.4-0.9-0.6-1.8-0.6-2.8s0.1-2,0.4-2.9c0.2-0.6,0.4-1.1,0.6-1.6v-0.1l0.1-0.1c0,0,0.1,0,0.1,0.1
						c0,0,0,0.1,0,0.2c0,0.4-0.1,0.7-0.2,1.1c-0.1,0.7,0.1,1.3,0.5,1.9s0.8,1.2,1.2,1.8c0.7,1.1,1.1,2.2,1.2,3.5
						C1,311.7,1,311.8,1,312L1,312z M-2.5,305.8C-2.6,305.8-2.6,305.8-2.5,305.8c-0.1,0.6-0.1,1.1-0.2,1.7c-0.1,0.9,0.1,1.9,0.5,2.9
						c0.3,0.6,0.6,1.1,0.9,1.7c0.5,0.7,0.8,1.4,1.1,2.1c0.2,0.4,0.3,0.8,0.4,1.2c0.1-0.2,0.1-0.5,0.2-0.7l0,0c0-0.4,0-0.7,0-1.1
						c0-0.6-0.1-1.1-0.4-1.7c-0.3-0.5-0.6-1.1-1-1.6c-0.4-0.6-0.8-1.1-1-1.7C-2.3,307.5-2.5,306.6-2.5,305.8L-2.5,305.8z M2,309.1
						C2,309,2.1,309,2,309.1c0.1-0.4,0.2-0.7,0.4-1c0.3-0.7,0.5-1.5,0.5-2.2c0.1-0.9-0.1-1.7-0.6-2.4c-0.3-0.4-0.6-0.8-0.9-1.2
						C1.2,302,1,301.7,1,301.4c0,0,0,0,0-0.1c-0.1,0.1-0.1,0.1-0.1,0.2c-0.2,0.9-0.1,1.8,0.1,2.7c0.1,0.4,0.3,0.8,0.5,1.2
						c0.4,0.9,0.7,1.9,0.6,2.9C2.1,308.5,2.1,308.8,2,309.1L2,309.1z M-2.1,304.7L-2.1,304.7c0,0.1-0.1,0.2-0.1,0.2
						c-0.1,0.6,0,1.2,0.1,1.8c0.2,0.9,0.5,1.8,1,2.5c0.3,0.5,0.6,1,0.9,1.4c0.5,0.8,0.8,1.7,0.9,2.6l0,0l0,0c0-0.1,0.1-0.2,0.1-0.3
						c0.1-0.7,0-1.4-0.1-2.1c-0.1-0.8-0.4-1.7-0.9-2.5c-0.4-0.6-0.7-1.1-1.1-1.6c-0.3-0.4-0.5-0.8-0.7-1.3
						C-2.1,305.4-2.1,305.1-2.1,304.7L-2.1,304.7z M9.6,308.9L9.6,308.9c0,0.1,0,0.1-0.1,0.2c-0.3,1-1,1.9-1.9,2.4
						c-0.7,0.4-1.3,0.6-2.1,0.7c-0.6,0.1-1.2,0.3-1.8,0.4c-1.5,0.3-2.5,1.3-3.1,2.7c0,0.1,0,0.1-0.1,0.2l0,0c0.3-0.5,0.7-1,1.3-1.3
						c0.8-0.5,1.8-0.9,2.8-1.2c0.7-0.2,1.4-0.4,2.1-0.6c0.7-0.3,1.4-0.7,2-1.1c0.4-0.3,0.7-0.8,0.8-1.3
						C9.7,309.6,9.8,309.3,9.6,308.9L9.6,308.9z M7.6,304.6c0,0.3,0,0.6,0,0.9c-0.1,0.7-0.3,1.4-0.8,2c-0.3,0.5-0.8,0.8-1.2,1.2
						c-0.8,0.6-1.6,1.2-2.3,1.9c-0.8,0.7-1.3,1.4-1.8,2.3v0.1l0,0c0.3-0.4,0.7-0.9,1-1.3c0.6-0.7,1.3-1.3,2.1-1.8
						c0.5-0.3,1-0.7,1.4-1c0.5-0.3,1-0.7,1.3-1.2c0.3-0.3,0.5-0.7,0.5-1.1c0.1-0.4,0.1-0.9,0-1.3C7.8,305.2,7.7,304.9,7.6,304.6z
						 M0.6,302.5C0.6,302.6,0.6,302.6,0.6,302.5c-0.1,0.5-0.1,0.9-0.2,1.3c0,0.5,0,1,0.1,1.4c0.1,0.7,0.3,1.4,0.6,2.1
						c0.2,0.4,0.3,0.9,0.4,1.4c0.2,0.6,0.1,1.2,0.1,1.8c0,0.2,0,0.3-0.1,0.4c0-0.1,0-0.1,0-0.1c0.2-0.8,0.3-1.5,0.3-2.3
						c0-0.5,0-1-0.1-1.6c-0.1-0.5-0.3-1.1-0.5-1.6c-0.2-0.4-0.4-0.8-0.5-1.2C0.7,303.6,0.6,303.1,0.6,302.5z M1.5,314.8l0.1-0.1
						c0.7-0.5,1.5-0.8,2.3-0.9c0.3-0.1,0.7-0.1,1.1-0.2c0.5-0.1,1-0.3,1.5-0.4c0.9-0.2,1.6-0.6,2.3-1.1c0.4-0.4,0.8-0.9,0.9-1.4
						c0-0.1,0-0.3,0.1-0.4l0,0c0,0.1-0.1,0.1-0.1,0.2c-0.2,0.5-0.6,0.9-1.1,1.2c-0.4,0.3-0.9,0.6-1.4,0.8c-0.6,0.2-1.2,0.4-1.8,0.6
						c-1,0.2-1.9,0.5-2.8,1C2.2,314.2,1.8,314.5,1.5,314.8z M5.4,300.9c-0.1,0.2-0.2,0.3-0.2,0.5c-0.2,0.7-0.4,1.4-0.5,2.1
						c-0.1,0.8-0.3,1.7-0.7,2.4c-0.3,0.7-0.6,1.3-0.9,2s-0.7,1.3-0.9,2.1v0.1c0,0,0.1,0,0.1-0.1c0.5-0.9,1.1-1.9,1.6-2.8
						c0.4-0.6,0.7-1.2,1-1.8c0.3-0.7,0.5-1.6,0.5-2.4C5.4,302.4,5.4,301.7,5.4,300.9z M1.1,313.1L1.1,313.1c0.1-0.2,0.2-0.3,0.3-0.4
						c0.3-0.6,0.7-1.1,1.2-1.6c0.8-0.8,1.7-1.5,2.6-2.2c0.4-0.3,0.7-0.6,1-0.9c0.5-0.6,0.9-1.4,1-2.1c0-0.3,0.1-0.6,0.1-0.8l0,0v0.1
						c-0.2,1-0.7,2-1.5,2.7c-0.4,0.4-0.8,0.7-1.2,1c-0.5,0.4-1,0.8-1.5,1.3c-0.5,0.4-0.8,0.9-1.1,1.4s-0.5,1-0.7,1.5
						C1.2,312.9,1.2,313,1.1,313.1L1.1,313.1z M5.7,301.4L5.7,301.4c0,0.4,0,0.8,0,1.2c0,0.4,0,0.9-0.1,1.3
						c-0.1,0.8-0.4,1.7-0.8,2.4c-0.4,0.7-0.8,1.3-1.2,2c0,0.1-0.1,0.1-0.1,0.2c0.2-0.1,0.3-0.3,0.4-0.5c0.3-0.3,0.6-0.6,0.9-1
						c0.4-0.6,0.7-1.2,1-1.8c0.2-0.5,0.3-1,0.3-1.6c0-0.5-0.1-1.1-0.2-1.6C5.7,301.7,5.7,301.6,5.7,301.4z"/>
				</g>
			</g>
		</g>
	</g>
</g>
</svg>
