<?xml version="1.0" encoding="utf-8"?>
<!-- Generator: Adobe Illustrator 23.0.2, SVG Export Plug-In . SVG Version: 6.00 Build 0)  -->
<svg version="1.1" id="Layer_1" xmlns="http://www.w3.org/2000/svg" xmlns:xlink="http://www.w3.org/1999/xlink" x="0px" y="0px"
	 viewBox="0 0 754 1024" style="enable-background:new 0 0 754 1024;" xml:space="preserve">
<style type="text/css">
	.st0{fill:#99CA3C;}
	.st1{fill:none;stroke:#4C4C4C;stroke-width:1.5;stroke-miterlimit:10;}
	.st2{fill:#FF8B00;}
</style>
<g>
	<g id="OBJECTS">
		<g>
			<g>
				<g>
					<g>
						<path class="st0" d="M677.3,256.1c-11.6,10.6-24.5,19.3-38.3,25.4c-53.9,24.3-113.2,8.4-161.8-36.9
							c-30.5-28.2-56.1-67.3-84.7-100c-28.8-32.7-61.2-60.3-96.3-61.7c-23.4-0.8-46.2,10.6-69,19.3c-31.6,11.7-64.9,18.2-96.5,7.5
							c-34.6-12.3-63.2-45-77.4-88.3C17.1-93.4,88-157.1,148.2-162.7c18.5-2,37-1.4,54.8,5.3c33.7,12.3,62.3,45.3,93.3,70.1
							c84.9,68.4,185.5,72.6,278.9,44.1c40.6-12.6,82.5-36.9,124.6-28.5c56.5,10.9,74.4,93.3,57.4,175.4
							C743.9,168.9,714,223.1,677.3,256.1z"/>
						<path class="st1" d="M271.3-165.5c-44.7,80.7-44.7,205,4.3,281c27.7,43.3,69.4,67,112.4,64.2c33.3-2.2,65.8-18.7,98.8-27.1
							c78.7-19.8,133.2,54.5,190.6,130.5c24.3,32.4,58.9,56.4,86.8,33c28.2-23.2,36.3-82.7,37-134.4c0.6-51.4-1.7-107.5,16.1-150
							c12.7-29.6,33.3-47.5,51.6-68.4c44.7-52.2,49.4-150.6-3-196.9c-56.5-50.6-121.4,4.2-176.9,31.6c-70.9,35.5-147.8,38.8-218.5,5
							c-30.5-14.5-60-35.8-91.5-39.7C335.4-241.5,297.1-211.8,271.3-165.5z"/>
						<path class="st2" d="M670.8,667.3c-1.7-9.8-3.2-19-4.9-28.5c-2.1-10.6-4.7-21.2-6.7-31.8c-0.9-4.2-2.4-7.5-4.3-10.9
							c-5.4-9.5-12.2-16.8-20.8-20.7c-8.4-4.2-17.2-5.3-26-5.3c-7.1,0.3-13.8-0.8-20.4-2.8c-12.2-3.9-22.1-13.7-30.1-28.8
							c-4.9-9.8-9-20.1-12.2-30.7c-0.2-0.3-0.2-0.8-0.2-1.1c0-1.1,0.2-2.2,0.2-3.4c0.2-0.8,1.1-1.1,1.7-0.8c0.2,0.3,0.2,0.3,0.2,0.3
							c7.3,8.4,15.9,9.8,24.5,9.5c6.7-0.8,13.1,0,20,1.4c13.1,3.4,25.4,11.7,35.5,24c8.2,9.2,15.5,19.3,21.7,30.7l0.2,0.3
							c0-0.8-0.2-1.1-0.2-1.4c-4.7-18.2-10.3-36.6-16.8-53.6c-4.3-11.7-10.7-19-19.3-21.8c-8.8-2.8-18.1-3.4-26.9-2
							c-15.3,2.8-27.7-6.4-38-24.9c-4.1-7.3-7.3-15.1-10.3-23.2c-0.2-0.8-0.2-1.1-0.6-2c-0.6-1.4-0.2-3.1,0.6-3.9
							c0.9-1.1,1.7-0.8,2.4,0.3c3.2,3.9,6.2,7.5,9.5,10.9c8.4,9.2,19.6,13.4,30.5,12.3c4.9-0.8,9.9-0.8,14.8-0.8
							c6.2,0.3,11.6,3.1,17,8.1c0.2,0.3,0.6,0.3,0.9,0.8c-0.2-0.8-0.6-1.4-0.9-2c-11.4-23.5-26.9-43-45.3-56.7
							c-5.6-4.2-11.2-7.3-17-10.6c-0.9-0.8-1.7-1.1-1.1-2.8c0-1.1,0.6-2,1.5-2c0.2,0,0.6,0.3,0.6,0.3c3.9,2.2,8,4.2,11.6,7
							c10.3,7,20,15.1,28.4,25.1c0.2,0.3,0.6,0.3,0.6,0.8c-0.2-1.1-0.6-1.4-0.9-2c-4.1-9.5-7.3-19-10.3-28.8
							c-5.4-19.3-6.4-40.2-3.9-60.6c0.6-3.9,0.9-8.1,1.7-11.7c0.2-1.1,0.6-2,1.1-2.2c0.6,0,1.1,0.3,1.7,0.8
							c7.1,12.6,12.7,26.5,15.5,42.2c1.7,11.7,2.4,23.5,1.7,35.5c-0.2,5.6-0.6,11.5-0.6,17c-0.2,8.1,1.1,15.9,3.9,22.9
							c0.2,0.8,0.6,1.4,0.9,2c7.3,11.7,14,24.3,20,37.2c2.6,5.6,5.4,11.5,7.5,17c0.9,2.2,1.7,4.5,2.4,7.3c0.2,0.8,0.6,1.1,0.9,2.2
							c0-1.1,0-1.1-0.2-1.4c-2.1-15.9-2.6-31.8-1.7-48c0.2-5.6,0.6-10.9,0.6-16.8c0.6-22.1-3.4-43.9-12.2-62.3
							c-1.7-4.2-3.9-8.1-5.8-12.3c-0.9-1.1-0.9-3.1-0.6-4.2c0.2-1.4,1.5-2.2,2.6-2c3.2,0.3,6.2,2,8.4,4.5
							c15.3,13.4,24.3,34.4,27.7,61.2c1.1,10.9,1.5,22.1,0.6,32.7c-0.6,11.5-2.6,22.1-4.1,33c-1.7,12.3-2.4,24-2.4,36.6
							c0.2,6.4,1.1,12.8,2.4,19.3c1.7,10.9,5.8,20.1,8.8,30.2c0.9,2.8,1.7,5,3,7.3c0-5.3-0.2-11.7-0.2-18.7
							c0.2-17.6,1.5-34.9,3.4-52.8c1.7-16.8,3.9-33,5.4-49.7c1.1-11.5,1.5-22.9,0.6-34.4c-0.6-8.1-2.4-15.1-4.7-22.3
							c-0.6-1.4-0.9-3.4-1.5-5c-0.6-1.4,0-3.4,0.9-4.2c0.2-0.3,0.6-0.3,0.6-0.8c0.9-2,0.9-2,2.1-0.8c0.6,0.8,1.1,1.4,2.1,2
							c4.9,2.8,8.4,8.4,11.4,15.1c6.4,15.9,8.4,33.8,8.2,52.8c-0.6,14.5-1.7,28.8-3.9,43.9c-2.6,21.2-6.4,42.7-9.9,63.4
							c-3.4,18.7-4.9,37.7-4.3,56.7c0.2,14.5,2.1,28.5,4.9,42.7c3.9,17.6,7.3,34.9,11.4,52.5c0.9,3.9,1.7,7.5,3,11.5
							c0.2,0.8,0.2,1.1,0.6,1.4h0.6c0.6-3.4,1.1-6.4,1.7-9.8c1.1-11.5,3-22.9,2.6-34.4c-0.2-10.9-1.1-22.1-3-32.7
							c-4.1-25.1-6.4-50.8-6.4-76.8c-0.2-20.7,3-41.1,9.7-59.8c1.7-5.3,4.7-9.8,8-13.7c1.1-1.4,2.4-2.2,3.9-3.1
							c2.4-1.1,3.9,1.4,3.2,5.6c-2.6,14.5-3.9,28.8-4.1,43.9c0.2,11.7,1.7,23.2,4.3,34.6c7.5,34.4,8.4,68.7,1.1,103.9
							c-2.6,13.4-6.7,26-12,37.7c-2.1,3.9-4.1,7.3-6.4,10.6c-0.6,0.8-0.9,2-0.6,3.1c7.5,26.5,17.2,50.6,31.8,68.7
							c0.2,0.3,0.6,0.8,1.1,1.1c-0.6-1.4-0.9-3.4-1.5-5c-1.7-6.1-2.6-12.3-3-18.2c-0.9-19.3-1.1-39.1-2.1-58.9
							c-0.6-15.1-0.6-30.4,0-46.1c0.9-15.6,2.4-30.7,4.9-46.1c3.9-22.3,7.5-45,11.4-67c0.6-2.8,1.1-5.3,1.7-8.1
							c0.2-1.4,0.9-3.1,2.1-2.8c0.9,0.3,1.5,1.4,1.7,2.8c3.4,11.5,7.3,22.3,10.7,34.4c5.6,20.7,7.3,42.7,4.9,64
							c-1.7,17.6-4.9,34.9-9.5,51.7c-4.3,15.9-9,31.3-13.8,47.2c-2.4,8.1-4.1,15.9-4.7,24.3c-0.6,3.9-0.9,8.1-1.1,11.7
							c-0.2,7,0.9,13.4,3.2,19.3c0.2,0.3,0.2,0.8,0.2,1.4c-0.2,2.8,0.9,3.4,2.1,4.5c9.5,9.8,19.1,18.2,29.9,22.3
							c4.1,2,8.4,2.8,12.9,2c1.1,0,2.1-0.8,2.6-2c0.2-1.1,1.5-0.8,1.7,0.8c0.2,1.4-0.2,3.1-1.1,3.9c-1.1,1.1-2.4,1.4-3.9,2
							c-4.1,0.8-8.4,0.3-12.9-1.4c-10.7-4.2-20.4-11.7-29.7-21.2c-1.1-1.4-2.6-2.8-3.9-4.5c-0.9-1.4-2.4-2-3.4-2
							c-4.1,0.3-8.2,2.2-11.6,5c-8,6.1-15.9,12.3-24.5,15.1c-16.8,6.1-34.6,3.4-49.9-7.5c-9.9-7.3-19.1-16.8-26.4-28.5
							c-4.7-7-9-14.5-13.8-21.2c-0.2-0.3-0.2-0.8-0.6-1.1c-0.6-1.1-0.9-2.2-0.2-3.4c0.2-1.1,1.1-1.4,2.1-1.1c0,0,0.2,0,0.2,0.3
							c1.1,0.8,2.4,1.4,3.4,2.8c6.4,5,13.8,8.4,21.1,9.8c5.8,1.1,11.6,0,17.6-0.8c7.3-1.1,14.8-1.4,22.6-1.1
							c8.2,1.4,16.1,4.2,23.4,9.2c7.1,4.2,14,8.7,21.3,12.8c3.9,2,8,3.9,11.6,5c0.2,0,0.6,0,0.9,0c-7.3-9.5-13.8-20.1-18.7-31.6
							c-5.4-12.3-9.7-24.3-13.5-37.7c-9.5,12.6-20,18.2-31.8,15.9c-5.6-1.1-11.4-2.8-16.8-5c-5.6-3.1-11.2-7-16.1-11.5
							c-6.7-6.1-13.1-12.3-19.6-18.2c-6.2-6.1-12.9-10.6-20.2-13.4c-6.7-2.2-13.8-2.8-20.4-1.1c-4.1,0.8-8.2,1.4-12.2,2.8
							c-1.1,0.3-2.1,0.3-2.6-1.4c-0.6-2-0.6-3.9,0.2-5.3c6.7-17.6,16.1-27.7,29-29.3c15.9-2.2,30.7,4.2,44.5,15.9
							c8.8,8.1,17.2,16.5,25.1,25.4c6.2,7,13.1,12.6,20.8,15.9c5.8,2.8,12,3.1,18.1,1.1c-0.6-2.2-0.9-4.2-1.5-6.1
							c-4.9-18.2-8.8-36.9-12.7-55.9l-0.2-0.8c-0.6-2.2-1.1-3.9-2.6-4.2c-8.8-2-17-7.5-24.9-14.5c-9.5-8.1-18.7-16.5-28.4-24
							c-8.4-7-17-13.4-26-17c-3.9-1.4-7.5-2.2-11.6-2.8c-6.2-0.8-11.6,2.8-17.6,7c-4.1,3.4-8.2,7.5-11.6,12.3
							c-0.9,1.1-1.7,2.8-3,1.1c-1.1-1.4-0.9-3.4-0.6-5c0.6-6.4,1.7-12.6,3.2-18.7c2.6-11.7,7.3-19,14.6-22.3
							c7.5-3.9,15.9-5.3,23.6-3.9c11.6,1.4,22.8,7.3,32.2,16.8c8.4,9.2,16.1,19,23.2,30.4c4.1,7.3,8.8,13.7,13.1,19.8
							c3.9,5.3,8.4,8.7,12.9,12.3C670.4,667.3,670.8,667.3,670.8,667.3z M730.8,760.8c0.2-0.3,0.2-0.8,0.6-1.1
							c4.1-14.5,8.4-28.2,12.7-43c4.9-17.6,8.2-35.5,9.9-53.6c1.7-15.1,1.1-30.2-1.1-45.3c-2.1-10.6-4.7-21-7.5-30.7
							c-1.1-4.2-2.6-8.4-4.1-12.6c-0.2,0.8-0.2,1.4-0.2,2c-0.9,19.3-1.7,39.1-2.6,58.7c-0.9,16.5-2.1,32.7-3.2,49.2
							c-1.1,22.3-2.4,45-3.2,67C731,754.4,731,757.5,730.8,760.8z M701.1,519.5L701.1,519.5c-0.9,1.1-1.5,2.8-2.1,3.9
							c-4.3,11.5-7.3,23.5-8.4,36.6c-1.5,14-1.7,28.5-0.9,43c1.1,20.7,3.4,41.1,6.4,61.2c2.6,16.8,3.2,34.4,0.9,51.4
							c-0.2,2.8-0.6,5.6-0.9,8.4c1.7-5.3,3-10.3,4.3-15.6c3.2-12.3,5.4-24.9,6.2-37.7c0.9-12.8-0.2-26-2.6-38.5
							c-1.5-8.4-3.4-16.5-5.4-24.3c-4.3-21.8-4.7-44.1-1.1-65.9C698.5,533.5,700.1,526.5,701.1,519.5z M608.1,794.1l-0.2,0.3
							c0.2,0.3,0.2,0.3,0.2,0.8c7.1,10.6,14.4,20.7,22.8,28.5c18.7,17.9,38.9,22.1,60,14.5c6.2-2.2,11.6-7,17.6-10.6
							c1.7-1.1,3.2-2.2,4.7-3.4c-1.5-0.8-3.2-1.1-4.7-1.1c-8.2-2-17-2.8-25.1-2c-5.4,0.8-10.7,1.4-16.1,1.4
							c-7.3,0.3-15.3-0.8-22.1-3.4c-5.6-2.8-11.2-5.6-16.1-9.2c-4.1-2.8-8.4-5.6-12.7-8.7C613.7,798.8,611.1,796.3,608.1,794.1z
							 M724.5,793.2c0.6-4.5,0.9-9.2,1.7-13.4c0.9-6.1,1.7-11.7,1.7-17.9c1.1-22.1,1.7-44.4,3.2-66.2c0.9-18.2,2.4-36.6,3.4-54.5
							c0.9-18.2,1.7-35.5,2.6-53.6c0.2-3.1,0.2-6.4,0.6-9.5c-0.2,0.3-0.2,0.3-0.2,0.8c-4.1,22.1-8,43.9-11.2,66.2
							c-2.6,18.2-4.1,37.2-4.7,55.9c0,12.8,0.2,26,0.9,39.1c0.6,17,1.1,33.8,1.7,50.8C724.5,792.1,724.5,793,724.5,793.2
							L724.5,793.2z M680.5,754.1l-4.9,0.8c-8.2,1.1-16.1-1.1-23.4-5.6c-7.1-4.5-13.5-10.3-19.1-16.8c-8.8-9.5-17-20.1-27.3-25.1
							c-4.3-2.2-8.8-4.2-13.5-5.6c-10.7-2.8-21.1,1.4-31.6,6.1c-2.1,1.1-3.9,2.8-5.6,4.2l0.2,0.8c3.4-0.8,6.7-1.4,10.3-2
							c8.8-1.4,17.6-1.4,26,3.1c6.2,3.4,11.6,7.5,17.2,12.6c7.3,7,14.8,13.7,22.1,20.7c10.3,9.5,21.7,12.8,33.3,13.7
							C670,760.6,675.6,758.3,680.5,754.1L680.5,754.1z M652.1,584c-0.2-0.8-0.9-1.1-1.1-2c-2.4-3.1-4.7-6.1-7.1-8.7
							c-12.7-15.9-28.4-26.5-45.6-30.4c-8.8-2-17.6-4.5-26.4-7.3c-5.4-1.4-10.3-5-14.4-9.8c-1.1-1.4-2.4-2.8-3.9-4.2
							c0,0.3,0,0.3,0,0.8c3.2,8.4,7.3,16.5,12.2,23.2c8.2,11.5,19.6,17.9,31.6,18.7c7.1,0.3,13.8,0.8,20.8,1.4
							c8.2,0.3,16.8,3.9,23.6,9.2C645.7,577.3,648.9,580.9,652.1,584L652.1,584z M684.2,748h-1.1c-5.4,0.8-10.5-0.8-15.5-3.4
							c-7.3-4.2-14-9.5-20-15.9c-8.4-9.5-17.6-18.2-26.6-26.3c-12.7-10.3-26-15.6-40.2-14c-6.4,0.3-12.2,3.9-17.2,9.2
							c-1.7,2-3.4,4.5-4.9,7c13.5-6.1,26.6-9.8,40.2-3.9c8.4,3.9,16.8,9.2,23.6,16.8c6.2,7,12.2,13.7,18.7,19.8
							c10.3,9.8,21.3,15.6,33.3,14C678.1,750.2,681.4,750.2,684.2,748L684.2,748z M618.2,797.7c0.2,0.3,0.6,0.8,1.1,1.1
							c5.6,3.9,10.7,7.5,16.3,10.9c4.3,3.1,8.8,5,13.5,6.4c9.7,2.8,19.6,3.1,29.2,1.4c6.4-1.1,12.7-1.4,19.1-0.8
							c3.4,0.3,6.7,1.1,9.9,2c-0.2-0.3-0.6-0.8-0.9-1.1c-8-5-16.1-9.5-24.1-14c-5.8-3.4-12.2-5.3-18.5-6.1c-7.3-0.3-14.6,0-21.9,1.4
							C633.9,799.7,625.9,801.3,618.2,797.7z M644.2,568.9c-0.6-1.1-0.9-1.4-1.1-2c-5.4-9.2-11.4-17-18.1-24.9
							c-9-10.9-20.2-19-32.4-22.3c-6.4-1.4-12.9-2.2-19.6-2c-7.1,0-14-0.3-20.4-5c0,0-0.2,0-0.6,0c1.5,2,2.4,3.4,3.9,5
							c3.9,5,8,9.5,12.7,11.5c8.8,4.2,17.6,6.1,26.6,8.4c6.2,2,12,3.1,17.8,5.6c8.8,4.2,17.2,9.8,24.5,17.9
							C639.5,563.3,641.6,566.1,644.2,568.9z M667.6,597.7h0.2c1.7-20.1,5.8-39.7,8.8-59.2c2.6-17.6,5.4-34.9,6.7-52.8
							c1.1-10.9,1.5-21.8,1.1-32.7c-0.2-14-3.2-27.4-8.2-39.9c-1.1-3.1-2.6-5.3-4.7-7.3c2.4,7.3,4.7,14.5,6.2,22.1
							c3,12.8,3.4,27.1,1.5,40.2c-2.1,13.7-4.1,27.4-6.2,41.1c-2.1,11.7-3.4,23.5-4.3,35.5c-1.1,12.8-2.1,26-1.7,38.8
							C667.2,588.2,667.6,592.7,667.6,597.7L667.6,597.7z M706.3,512.8l-0.2-0.3c-0.2,0.3-0.6,0.8-0.9,1.1c0.6,2-0.6,2.8-0.9,3.9
							c-0.9,4.2-1.7,8.1-2.6,12.3c-0.6,3.9-1.1,7.3-1.7,10.6c-1.7,11.5-2.6,23.2-2.4,34.6c0.2,16.5,3.2,31.8,6.7,47.5
							c2.4,10.3,3.9,21,4.1,31.6c0.9,21-2.4,40.2-7.1,59.2c-1.1,4.2-2.4,8.1-3.4,12.3c0.2,0,0.6-0.3,0.6-0.8
							c4.3-11.7,8-24,10.3-36.9c5.8-30.7,4.3-61.7-1.5-92.2c-1.5-7.3-3.2-14.8-4.3-22.1c-2.1-14.5-1.1-28.5,0.6-43
							C704.3,524.8,705.2,518.9,706.3,512.8z M551.8,627.9c3.2-3.1,6.4-6.1,9.9-8.7c3.9-3.4,8.2-5.3,12.7-6.4
							c8-1.4,15.9,0.3,22.8,4.5c9,5.3,17.6,11.5,26,18.7c9,7.5,18.1,15.6,27.3,23.5c4.7,4.2,9.5,7.5,14.6,9.8
							c-1.1-1.1-3.2-2.8-5.4-4.2c-5.6-4.2-11.2-8.7-15.9-14c-2.4-2.8-4.7-5-7.1-7.3c-3.9-3.9-8-7.3-11.4-11.5
							c-7.1-7.5-13.8-15.9-21.7-21.2c-5.6-3.9-11.2-7.5-17.2-8.7c-5.4-0.8-10.7-0.8-16.1,3.1C563.2,610.3,557.1,618.9,551.8,627.9
							C551.8,628.1,551.8,628.1,551.8,627.9z M651.3,654.1L651.3,654.1c-2.4-3.9-4.7-7.5-7.1-11.5c-4.9-8.7-10.5-16.8-16.8-24
							c-5.4-6.1-10.3-12.3-16.1-16.5c-7.1-5-14.4-8.1-22.1-9.2c-8.4-2-17.6,0-25.4,4.5c-6.2,3.9-10.7,13.7-11.4,23.2l0.9-1.1
							c3-4.5,6.2-8.7,9.5-12.6c5.4-6.4,12.2-9.8,19.6-9.8c5.6,0.3,10.7,2,15.9,5c6.4,3.9,12.2,8.4,17.8,14
							c4.9,5.3,9.7,10.9,14.6,15.9c6.7,7.3,13.8,13.7,20.8,20.7C650.8,653.6,650.8,654.1,651.3,654.1z M642.7,533.2
							c-0.2-0.8-0.2-1.4-0.6-2.8c-0.6-3.4-1.5-6.4-2.1-9.5c-1.7-13.4-2.4-27.1-1.7-40.8c0.2-13.4,1.1-26.3,1.5-39.7
							c0.6-23.5-3.2-45.3-12.7-63.4c-2.4-5.3-5.8-9.5-9.9-12.6l1.1,2.8c3.4,7.3,6.7,14.8,9.5,22.9c4.7,14.8,6.7,30.7,6.4,47.2
							c-0.2,10.6-0.9,21.2-0.9,31.8C632.8,490.7,636,512.8,642.7,533.2z M667,401.9c0,0.3-0.2,0.3,0,0.8c0.2,0.3,0.2,0.8,0.2,1.1
							c3.4,10.3,5.4,21.2,5.6,32.7c0.2,14.5-0.6,28.5-2.4,43c-2.1,19.3-4.3,39.1-6.2,58.7c-2.4,26-1.7,52.2,2.1,77.7
							c0,0.8,0.2,1.1,0.2,2c0.2-1.1,0.2-2.2,0.2-3.4s0-2-0.2-3.1c-1.7-17.6-2.1-34.9-0.9-52.5c0.9-11.5,1.7-22.9,3.2-33.8
							c2.4-18.2,5.4-36.6,8.2-54.5c0.9-6.1,1.5-12.6,1.1-19c-0.2-8.7-1.5-17.6-3.4-25.4c-1.7-8.1-4.1-15.6-7.1-22.3
							C667.6,402.4,667.2,402.4,667,401.9L667,401.9z M629.1,374.8c0.6,1.1,1.1,2.2,1.7,3.4c1.7,4.2,3.4,8.1,4.9,12.3
							c4.9,15.1,7.1,31.6,6.4,48.3c-0.2,12.8-0.9,25.4-1.1,38.5c-0.6,12.8-0.2,26,0.9,38.8c0,0.8,0.2,2,0.2,2.8
							c0.2-0.8,0.2-1.1,0.2-2c0.6-11.5,1.7-23.2,3.2-34.4c1.7-10.6,3-21,3.4-31.6c1.5-21.8-2.4-43.3-11.2-62
							C635.6,383.2,632.8,378.7,629.1,374.8z M551.3,455.8l-0.2,0.8c2.4,2.2,4.3,4.5,6.7,6.4c6.4,5.6,13.8,7.3,20.8,8.7
							c5.8,1.1,11.6,1.4,17.2,2.2c9.7,1.4,18.7,7,25.8,15.9c0.9,1.1,1.7,2,2.4,3.1l0.2-0.3c-1.5-3.9-3.2-7.5-5.4-10.6
							c-6.4-9.5-14-15.6-22.6-16.5c-5.4-0.3-10.3-0.3-15.5,0.8c-8.4,1.4-17-0.8-24.5-5.6L551.3,455.8z M594.1,423.9L594.1,423.9
							c0.2-0.8,0-1.1,0-1.4c-3.9-18.2-6.7-36.6-8.8-55c-1.1-10.9-2.6-22.1-4.1-32.7c0-0.8-0.2-1.4-0.2-2c-1.5,8.1-2.1,15.9-2.1,24.3
							c0.2,20.1,4.3,40.2,11.6,57.8L594.1,423.9z M549,458.9c9.9,19,22.1,28.2,37.4,25.4c5.6-1.1,11.2-1.1,17-0.3
							c3.9,0.8,7.3,1.4,10.7,2.8c-0.2-0.3-0.2-0.3-0.6-0.8c-3-2.8-6.2-5-9.7-6.1c-4.1-1.1-8.4-2.2-12.7-3.1
							c-7.3-1.1-14.8-1.1-22.1-3.9c-4.3-1.4-8.4-3.9-12.2-7C554.4,464.5,552,461.9,549,458.9z M583.8,335.1
							c3.2,26.3,6.2,52.8,11.2,78.5c0.9-10.6,0.9-21.2,0.6-31.6C594.8,365.3,590.7,348.8,583.8,335.1L583.8,335.1z"/>
					</g>
				</g>
			</g>
		</g>
	</g>
</g>
</svg>
